<svg xmlns="http://www.w3.org/2000/svg" viewBox="0 0 129.99 128.47" id="Babyworker"><g data-name="Layer 2" fill="#008080" class="color000000 svgShape"><path d="M103.41 93.63h.08a23.64 23.64 0 0 0 20.92-18.12 1 1 0 1 0-2-.44 21.6 21.6 0 0 1-19.13 16.56 1 1 0 0 0 .08 2Z" fill="#008080" class="color000000 svgShape"></path><path d="M113.43 96.11A28.34 28.34 0 0 0 122 50.56a.52.52 0 0 0-.12-.18.91.91 0 0 0-.16-.11 28.3 28.3 0 0 0-19.74-8.38.91.91 0 0 0-.72.29 1 1 0 0 0-.29.71v26.4H75.16v-4.17a10.24 10.24 0 0 0-10.24-10.23h-1a1.91 1.91 0 0 0-.19-.5c-1.25-2.2-7.49-3.76-9.37-4.19a1 1 0 0 0-.46 0c-1.75.42-4.35-.53-6.72-2.12 1.82-1.5 3.53-4.21 3.53-9.08a20.91 20.91 0 0 0-5.86-14.93v-2.93a.42.42 0 0 1 .41-.41h3.63a2.43 2.43 0 0 0 2.42-2.42v-1.37a.4.4 0 0 1 .41-.39h1.12a1.56 1.56 0 0 0 1.44-.92 1.58 1.58 0 0 0-.22-1.69L50.75 10 50 7.77a1 1 0 0 0 .72-.94V3.44A3.45 3.45 0 0 0 47.27 0H35a3.44 3.44 0 0 0-3.44 3.44V5a9.54 9.54 0 0 1-3.8 7.59 3.78 3.78 0 0 0-1.4 3.41l.44 3.64a1.77 1.77 0 0 1-1.76 2 1 1 0 0 0-.94.65 5.91 5.91 0 0 0 0 4.69A6.47 6.47 0 0 0 27.74 30a5.45 5.45 0 0 0 .3 1.12 7.78 7.78 0 0 0-1.87 5.62l-2.55 20.93a28.8 28.8 0 0 1-2 6.46 68.35 68.35 0 0 0-5.16 23.27c-5.21 5.52-7.87 10.28-8.36 14.92a27.53 27.53 0 0 1-7 10.87 3.28 3.28 0 0 0-.42 4.33c4.3 5.7 8.57 8.69 12.23 8.69a6.41 6.41 0 0 0 3.89-1.32 2.26 2.26 0 0 0 .9-1.55 2.38 2.38 0 0 0-.48-1.76l-5.06-6.35a50.34 50.34 0 0 0 7.29-14.35 34.47 34.47 0 0 0 8.27-10.25c1.84.17 3.69.25 5.53.25 1.39 0 2.78 0 4.17-.14 1 7.1 4.84 17.64 7.76 21.3a28 28 0 0 1 2.72 12.67 3.26 3.26 0 0 0 2.74 3.36 37.25 37.25 0 0 0 5.25.4c6.67 0 10.73-2.3 11.38-6.61a2.41 2.41 0 0 0-.5-1.75 2.32 2.32 0 0 0-1.56-.86l-8.06-.92a50 50 0 0 0-5-15.29 33.46 33.46 0 0 0-2.24-15.38 57.82 57.82 0 0 0-2.31-20.74c-.93-3.57-1.66-6.38-1.1-8.91V56c1.68 1 3 1.81 3.61 2.14 2.25 2.92 4.48 3.67 6.19 3.67a6.76 6.76 0 0 0 .93-.07c2.89-.47 5.18-3 6.18-4.86h1.49a8.25 8.25 0 0 1 8.24 8.23v5.17a28.42 28.42 0 0 0 15.19 25.14L100 107.84l-7.09 7.77a7 7 0 1 0 1.5 1.39l7-7.65 7.29 7.74a6.94 6.94 0 0 0-1.55 4.38 7.07 7.07 0 1 0 3-5.75l-7.39-7.85Zm-68-49.28A12.47 12.47 0 0 1 41.74 42c-.85-2.4-2-9.68-2.15-11.07a6.94 6.94 0 0 0 .22-3.19 1.06 1.06 0 0 0 0-.19v-2.73a5 5 0 0 0 2.86 1.82h.36a2.21 2.21 0 0 0 1.17-.32A19.45 19.45 0 0 1 48.71 39c0 4.47-1.65 6.71-3.23 7.83ZM52 14.55h-.24a2.4 2.4 0 0 0-2.41 2.39v1.37a.42.42 0 0 1-.42.42h-3.67a2.41 2.41 0 0 0-2.41 2.41v3.49c-.42-.12-1.46-.68-3-3.19v-4.8l3.72-5.14a1 1 0 0 0 .19-.59V7.83h4.15l1 3a1.18 1.18 0 0 0 .19.32ZM25.88 26.07a3.62 3.62 0 0 1-.08-2.56 3.76 3.76 0 0 0 3-4.15l-.44-3.64a1.78 1.78 0 0 1 .64-1.58A11.56 11.56 0 0 0 33.55 5V3.44A1.45 1.45 0 0 1 35 2h12.27a1.45 1.45 0 0 1 1.45 1.44v2.39h-6a1 1 0 0 0-1 1v3.76L38 15.73a1 1 0 0 0-.19.59v7.6A6.11 6.11 0 0 0 36 22.71a5.71 5.71 0 0 0-4.6.05 6.32 6.32 0 0 0-3.4 3.68 7.61 7.61 0 0 0-.33 1.33 4 4 0 0 1-1.79-1.7ZM15.6 122.81a.34.34 0 0 1 .07.27.31.31 0 0 1-.12.21c-4.66 3.46-10.87-3.73-13.32-7a1.26 1.26 0 0 1 .19-1.67l.36-.36a7.67 7.67 0 0 0 5.7 2.28 9.74 9.74 0 0 0 2-.2Zm2.33-23.32a1 1 0 0 0-.34.48 48.39 48.39 0 0 1-7.33 14.39c-1 .22-4.13.71-6.1-1.51a30 30 0 0 0 5.86-10 1.05 1.05 0 0 0 .06-.24c.4-4.18 2.85-8.55 7.69-13.71a65.8 65.8 0 0 0 7.76 1.47 32.9 32.9 0 0 1-7.6 9.12Zm47.23 21.87a.3.3 0 0 1 .07.23c-.86 5.78-10.33 5.07-14.36 4.5a1.25 1.25 0 0 1-1-1.32v-.5h.22c3.2 0 5.55-2.27 6.67-4l8.21.94a.3.3 0 0 1 .19.15Zm-15-17.69a48 48 0 0 1 5 15.36c-.53.85-2.41 3.41-5.37 3.24a30.26 30.26 0 0 0-2.92-11.19.67.67 0 0 0-.13-.21c-2.68-3.26-6.38-13.52-7.39-20.3a62 62 0 0 0 8.9-1.57 32.35 32.35 0 0 1 1.84 14.1.94.94 0 0 0 .09.57ZM47.9 87a59.72 59.72 0 0 1-29.43 0 66.8 66.8 0 0 1 5-22.19A40.52 40.52 0 0 0 25.42 59c6.13 1.57 12.93 2.81 18.89.42a28.49 28.49 0 0 0 1.36 8A56.42 56.42 0 0 1 47.9 87Zm-3.38-29.84c-5.68 2.77-12.61 1.49-18.81-.12l2.45-20.13a.49.49 0 0 0 0-.12 6.51 6.51 0 0 1 .9-3.79 6.26 6.26 0 0 0 2 1.65c.41 2 1.92 9.07 3.14 11.43 1.31 2.53 6.26 6.07 10.36 8.71Zm12.41 2.61c-1.82.3-3.61-.71-5.33-3a1 1 0 0 0-.31-.27c-3.72-2.1-13.72-8.23-15.35-11.38-1-2-2.56-8.91-3.06-11.39a1 1 0 0 0-.59-.73 4.66 4.66 0 0 1-2.37-5.9 4.25 4.25 0 0 1 2.29-2.53 3.78 3.78 0 0 1 3 0 4.68 4.68 0 0 1 2.39 5.9 1.13 1.13 0 0 0 0 .48c0 .36 1.28 8.86 2.29 11.69a15 15 0 0 0 4.84 6.1.9.9 0 0 0 .27.21c2.91 2.26 6.44 3.78 9.12 3.27 3.83.89 7.49 2.36 7.85 3.16-.44 1.12-2.45 3.97-5.04 4.39ZM89 126.46a5 5 0 1 1 5-5 5 5 0 0 1-5 5Zm30.22-5a5 5 0 1 1-5-5 5 5 0 0 1 4.98 4.96Zm1.88-68.88a26.31 26.31 0 0 1 6.9 16.71h-23.67Zm-1.4-1.42-16.78 16.72v-24a26.34 26.34 0 0 1 16.76 7.24ZM75.18 71.29H128a26.41 26.41 0 0 1-52.79 0Zm17.71 26.05a28.08 28.08 0 0 0 8.69 1.37 28.41 28.41 0 0 0 7.76-1.09l-8 8.74Z" fill="#008080" class="color000000 svgShape"></path></g></svg>