<svg xmlns="http://www.w3.org/2000/svg" viewBox="0 0 100 100" id="Fitness"><path d="M65.9 45.1c-.5-1.1-2.9-5.8-6.7-9.3 0 .1-.1.3-.1.4.2-.9.3-1.8.3-2.8 0-8.8-7.1-15.9-15.9-15.9s-15.9 7.1-15.9 15.9 7.1 15.9 15.9 15.9c2.9 0 5.7-.8 8-2.2-.1.1-.2.1-.3.2 1.3 2.4 2 4.7 2.1 6.9-2.8-.8-9.6-2.2-13.3 2.5-1.9-1.4-6.8-4.3-11.2-1.4-1 .7-1.6 1.8-1.6 3V79c0 1 .4 1.9 1.1 2.6.7.6 1.5 1 2.4 1h.2c3.2-.2 8.8-1.3 11.2-6.3 2.8.9 11.5 3 19.5-2.7 2.1-1.5 4.1-3.1 5.7-4.7 1.6-1.6 3-3.2 3.9-4.6 2.5-4 3.2-12.6-5.3-19.2zM29.5 33.4c0-7.7 6.3-13.9 13.9-13.9 7.7 0 13.9 6.3 13.9 13.9 0 7.7-6.3 13.9-13.9 13.9-7.6.1-13.9-6.2-13.9-13.9zm29.4 3.8c-.1.2-.1.5-.2.7.1-.2.2-.5.2-.7zm-.5 1.7c-.1.2-.1.4-.2.6.1-.2.1-.4.2-.6zm-.9 2c0 .1-.1.2-.1.2s.1-.1.1-.2zM53 46.1c-.2.1-.3.2-.5.3.2 0 .4-.1.5-.3zm.9-.7c.2-.1.3-.3.5-.4-.2.2-.3.3-.5.4zm2.7-2.9c-.1.2-.2.3-.3.5.1-.2.2-.4.3-.5zm-1.1 1.3c-.1.2-.3.3-.4.5.2-.2.3-.3.4-.5z" fill="#008080" class="color000000 svgShape"></path><path d="M43.5 27.7c-3.1 0-5.7 2.5-5.7 5.7 0 3.1 2.5 5.7 5.7 5.7 3.1 0 5.7-2.5 5.7-5.7-.1-3.1-2.6-5.7-5.7-5.7z" fill="#008080" class="color000000 svgShape"></path></svg>