<svg id="SvgjsSvg1001" width="288" height="288" xmlns="http://www.w3.org/2000/svg" version="1.1" xmlns:xlink="http://www.w3.org/1999/xlink" xmlns:svgjs="http://svgjs.com/svgjs"><defs id="SvgjsDefs1002"></defs><g id="SvgjsG1008"><svg xmlns="http://www.w3.org/2000/svg" viewBox="0 0 97 54.08" width="288" height="288"><path d="M95.5 19.23h-7V3.58A3.58 3.58 0 0 0 84.88 0h-34.3a3.55 3.55 0 0 0-2.08.68A3.55 3.55 0 0 0 46.42 0h-34.3a3.58 3.58 0 0 0-3.57 3.58v15.65h-7A1.5 1.5 0 0 0 0 20.73v21.36a1.5 1.5 0 0 0 1.5 1.5h7v8.25a2.24 2.24 0 0 0 2.24 2.24h7.07a2.24 2.24 0 0 0 2.24-2.24v-8.25h56.86v8.25a2.24 2.24 0 0 0 2.24 2.24h7.07a2.24 2.24 0 0 0 2.24-2.24v-8.25h7a1.5 1.5 0 0 0 1.5-1.5V20.73a1.5 1.5 0 0 0-1.46-1.5ZM50.58 3h34.3a.58.58 0 0 1 .58.58v25.75a.58.58 0 0 1-.58.58H70l.15-.12L78.92 21a3.38 3.38 0 0 0 0-4.77L70.11 7.4a3.35 3.35 0 0 0-2.39-1 3.35 3.35 0 0 0-2.39 1l-8.81 8.81a3.38 3.38 0 0 0 0 4.77l8.81 8.81.15.12h-14.9a.58.58 0 0 1-.58-.58V3.58a.58.58 0 0 1 .58-.58Zm16.88 24.67-8.81-8.81a.38.38 0 0 1 0-.53l8.81-8.81a.37.37 0 0 1 .26-.11.54.54 0 0 1 .26.11l8.81 8.81a.38.38 0 0 1 0 .53L68 27.67a.38.38 0 0 1-.54 0ZM11.55 3.58a.58.58 0 0 1 .57-.58h34.3a.58.58 0 0 1 .58.58v25.75a.58.58 0 0 1-.58.58H31.51l.15-.12L40.47 21a3.38 3.38 0 0 0 0-4.77L31.66 7.4a3.35 3.35 0 0 0-2.39-1 3.35 3.35 0 0 0-2.39 1l-8.81 8.81a3.38 3.38 0 0 0 0 4.77l8.81 8.81.15.12H12.12a.58.58 0 0 1-.58-.58V3.58ZM29 27.67l-8.8-8.81a.38.38 0 0 1 0-.53L29 9.52a.37.37 0 0 1 .26-.11.49.49 0 0 1 .26.11l8.81 8.81a.38.38 0 0 1 0 .53l-8.81 8.81a.38.38 0 0 1-.52 0ZM17.09 51.08h-5.54v-7.49h5.55Zm68.36 0h-5.54v-7.49h5.55ZM94 40.59H3V22.23h5.55v9.18a1.5 1.5 0 0 0 1.5 1.5H87a1.5 1.5 0 0 0 1.5-1.5v-9.18H94Z" data-name="Layer 2" fill="#008080" class="color000 svgShape"></path></svg></g></svg>