<svg xmlns="http://www.w3.org/2000/svg" enable-background="new 0 0 1024 1024" viewBox="0 0 1024 1024" id="pestcontrol"><path fill="none" stroke="#008080" stroke-miterlimit="10" stroke-width="15" d="M337.816,468.331v407.778
			c0,10.469-8.485,18.953-18.953,18.953h-177.13c-10.469,0-18.953-8.485-18.953-18.953V468.331
			c0-46.966,30.122-86.907,72.096-101.551c11.094-3.867,23.012-5.968,35.423-5.968s24.329,2.1,35.423,5.968
			C307.694,381.424,337.816,421.365,337.816,468.331z" class="colorStroke0f3144 svgStroke"></path><path fill="none" stroke="#008080" stroke-miterlimit="10" stroke-width="15" d="M272.79 322.462v45.51c-13.31-4.64-27.61-7.16-42.5-7.16s-29.19 2.52-42.5 7.16v-45.51c0-6.57 5.33-11.9 11.9-11.9h61.2C267.46 310.563 272.79 315.893 272.79 322.462zM222.072 794.625h115.814V531.258H222.072c-10.147 0-18.373 8.226-18.373 18.373v226.621C203.699 786.399 211.925 794.625 222.072 794.625zM566.285 436.991h20.633c20.62 0 37.333-16.713 37.333-37.333V290.623M601.99 402.726c-15.219-12.993-26.713-28.797-31.034-58.197" class="colorStroke0f3144 svgStroke"></path><path fill="none" stroke="#008080" stroke-miterlimit="10" stroke-width="15" d="M681.123,233.102l-70.477,71.28l-39.691,40.147
			c-2.992,3.027-4.67,7.111-4.67,11.367v159.836c0,35.805-29.026,64.831-64.831,64.831h0c-35.805,0-64.831-29.026-64.831-64.831
			V225.562c0-56.885-46.115-103-103-103h0c-56.885,0-103,46.115-103,103v38" class="colorStroke0f3144 svgStroke"></path><circle cx="730.851" cy="731.71" r="169.728" fill="none" stroke="#008080" stroke-miterlimit="10" stroke-width="15" class="colorStroke0f3144 svgStroke"></circle><path fill="none" stroke="#008080" stroke-miterlimit="10" stroke-width="15" d="M765.155,669.419v12.784h-68.921v-12.784
			c0-14.92,12.095-27.015,27.015-27.015h14.891C753.06,642.404,765.155,654.499,765.155,669.419z" class="colorStroke0f3144 svgStroke"></path><polyline fill="none" stroke="#0f3144" stroke-miterlimit="10" stroke-width="15" points="788.609 746.27 821.613 724.915 857.53 760.831"></polyline><polyline fill="none" stroke="#0f3144" stroke-miterlimit="10" stroke-width="15" points="673.094 746.27 640.089 724.915 604.173 760.831"></polyline><polyline fill="none" stroke="#0f3144" stroke-miterlimit="10" stroke-width="15" points="776.528 699.926 801.515 674.939 837.901 683.174"></polyline><polyline fill="none" stroke="#0f3144" stroke-miterlimit="10" stroke-width="15" points="685.175 699.926 660.188 674.939 623.802 683.174"></polyline><polyline fill="none" stroke="#0f3144" stroke-miterlimit="10" stroke-width="15" points="779.44 789.676 809.75 804.513 809.75 844.313"></polyline><polyline fill="none" stroke="#0f3144" stroke-miterlimit="10" stroke-width="15" points="682.263 790.161 651.953 804.999 651.953 844.798"></polyline><line x1="730.851" x2="730.851" y1="681.912" y2="777.819" fill="none" stroke="#008080" stroke-miterlimit="10" stroke-width="15" class="colorStroke0f3144 svgStroke"></line><line x1="747.085" x2="762.616" y1="643.474" y2="618.621" fill="none" stroke="#008080" stroke-miterlimit="10" stroke-width="15" class="colorStroke0f3144 svgStroke"></line><line x1="714.618" x2="699.086" y1="643.474" y2="618.621" fill="none" stroke="#008080" stroke-miterlimit="10" stroke-width="15" class="colorStroke0f3144 svgStroke"></line><path fill="none" stroke="#008080" stroke-miterlimit="10" stroke-width="15" d="M787.967 746.27c0 44.497-25.646 80.57-57.272 80.57s-57.272-36.072-57.272-80.57c0-26.297 8.96-49.652 22.812-64.358v.291h68.921v-.291C779.007 696.618 787.967 719.974 787.967 746.27zM238.642 263.563h-16.703c-3.948 0-7.149 3.201-7.149 7.149v39.851h31v-39.851C245.79 266.763 242.59 263.563 238.642 263.563z" class="colorStroke0f3144 svgStroke"></path><line x1="901.221" x2="859.52" y1="252.361" y2="294.063" fill="none" stroke="#00ffff" stroke-miterlimit="10" stroke-width="15" class="colorStroke0098ff svgStroke"></line><line x1="859.52" x2="901.221" y1="252.361" y2="294.063" fill="none" stroke="#00ffff" stroke-miterlimit="10" stroke-width="15" class="colorStroke0098ff svgStroke"></line><line x1="477.221" x2="435.52" y1="761.361" y2="803.063" fill="none" stroke="#00ffff" stroke-miterlimit="10" stroke-width="15" class="colorStroke0098ff svgStroke"></line><line x1="435.52" x2="477.221" y1="761.361" y2="803.063" fill="none" stroke="#00ffff" stroke-miterlimit="10" stroke-width="15" class="colorStroke0098ff svgStroke"></line><line x1="714.385" x2="726.511" y1="218.842" y2="210.013" fill="none" stroke="#00ffff" stroke-miterlimit="10" stroke-width="15" class="colorStroke0098ff svgStroke"></line><line x1="741.427" x2="763.799" y1="199.155" y2="182.867" fill="none" stroke="#00ffff" stroke-dasharray="18.449 18.449" stroke-miterlimit="10" stroke-width="15" class="colorStroke0098ff svgStroke"></line><line x1="771.257" x2="783.384" y1="177.438" y2="168.609" fill="none" stroke="#00ffff" stroke-miterlimit="10" stroke-width="15" class="colorStroke0098ff svgStroke"></line><line x1="692.795" x2="701.769" y1="197.406" y2="185.385" fill="none" stroke="#00ffff" stroke-miterlimit="10" stroke-width="15" class="colorStroke0098ff svgStroke"></line><line x1="712.91" x2="729.623" y1="170.46" y2="148.072" fill="none" stroke="#00ffff" stroke-dasharray="18.625 18.625" stroke-miterlimit="10" stroke-width="15" class="colorStroke0098ff svgStroke"></line><line x1="735.194" x2="744.167" y1="140.609" y2="128.589" fill="none" stroke="#00ffff" stroke-miterlimit="10" stroke-width="15" class="colorStroke0098ff svgStroke"></line><circle cx="551.037" cy="150.845" r="12.046" fill="none" stroke="#00ffff" stroke-miterlimit="10" stroke-width="15" class="colorStroke0098ff svgStroke"></circle><circle cx="817.645" cy="446.802" r="21.728" fill="none" stroke="#00ffff" stroke-miterlimit="10" stroke-width="15" class="colorStroke0098ff svgStroke"></circle><line x1="337.885" x2="255.5" y1="621.258" y2="621.258" fill="none" stroke="#008080" stroke-miterlimit="10" stroke-width="15" class="colorStroke0f3144 svgStroke"></line><line x1="337.885" x2="280" y1="704.625" y2="704.625" fill="none" stroke="#008080" stroke-miterlimit="10" stroke-width="15" class="colorStroke0f3144 svgStroke"></line></svg>