<svg id="SvgjsSvg1061" width="288" height="288" xmlns="http://www.w3.org/2000/svg" version="1.1" xmlns:xlink="http://www.w3.org/1999/xlink" xmlns:svgjs="http://svgjs.com/svgjs"><defs id="SvgjsDefs1062"></defs><g id="SvgjsG1063"><svg xmlns="http://www.w3.org/2000/svg" enable-background="new 0 0 48 48" viewBox="0 0 48 48" width="288" height="288"><path d="M24,6C14.1,6,6,14.1,6,24s8.1,18,18,18s18-8.1,18-18S33.9,6,24,6z M24,13c2.2,0,4,1.8,4,4c0,2.2-1.8,4-4,4c-2.2,0-4-1.8-4-4C20,14.8,21.8,13,24,13z M14,34c0-5.5,4.5-10,10-10c5.5,0,10,4.5,10,10H14z" fill="#212121" class="color000 svgShape"></path></svg></g></svg>