<svg xmlns="http://www.w3.org/2000/svg" enable-background="new 0 0 64 64" viewBox="0 0 64 64" id="TechnicalPerson"><path d="M58.7,27.27c-0.4,0-0.75-0.29-0.84-0.68c-0.67-3.24-1.93-6.28-3.74-9.05c-0.22-0.34-0.18-0.78,0.11-1.07l3.74-3.74
		l-6.7-6.7l-3.74,3.74c-0.29,0.29-0.73,0.33-1.07,0.11c-2.76-1.82-5.81-3.07-9.05-3.75c-0.39-0.08-0.68-0.42-0.68-0.83v-5.3h-9.47
		v5.3c0,0.4-0.29,0.74-0.68,0.83c-3.24,0.68-6.28,1.94-9.05,3.75c-0.34,0.22-0.78,0.17-1.07-0.11l-3.74-3.74l-6.7,6.7l3.74,3.74
		c0.29,0.29,0.33,0.73,0.11,1.07c-1.82,2.76-3.07,5.81-3.74,9.05c-0.08,0.39-0.43,0.68-0.84,0.68H0v9.47h5.3
		c0.4,0,0.75,0.28,0.84,0.68c0.67,3.24,1.93,6.28,3.74,9.05c0.22,0.34,0.18,0.78-0.11,1.06l-3.74,3.74l6.7,6.71l3.74-3.75
		c0.29-0.28,0.73-0.32,1.07-0.1c2.76,1.82,5.81,3.07,9.05,3.74c0.39,0.08,0.68,0.43,0.68,0.84v5.29h9.47V58.7
		c0-0.4,0.29-0.75,0.68-0.84c3.24-0.67,6.28-1.93,9.05-3.74c0.34-0.23,0.78-0.18,1.07,0.1l3.74,3.75l6.7-6.71l-3.74-3.74
		c-0.29-0.28-0.33-0.72-0.11-1.06c1.82-2.76,3.07-5.81,3.74-9.05c0.08-0.4,0.43-0.68,0.84-0.68H64v-9.47H58.7z M46.78,46.87
		c-0.04,0.06-0.09,0.11-0.17,0.15c0,0,0,0-0.01,0.01c-1.31,1.29-2.8,2.4-4.42,3.29c-0.01,0-0.02,0.01-0.03,0.02
		c-0.04,0.03-0.08,0.06-0.13,0.08c-0.01,0-0.01,0-0.01,0c-2.98,1.63-6.4,2.56-10.02,2.56c-3.51,0-6.83-0.87-9.74-2.41
		c-0.01,0-0.03,0-0.04-0.01c-0.04-0.02-0.08-0.04-0.11-0.07c-1.73-0.92-3.31-2.08-4.7-3.45c-0.08-0.04-0.14-0.1-0.19-0.18
		c-3.83-3.8-6.2-9.07-6.2-14.87c0-11.57,9.42-20.98,20.98-20.98s20.98,9.41,20.98,20.98C52.98,37.8,50.61,43.07,46.78,46.87z" fill="#008080" class="color000000 svgShape"></path><path d="M32,12.03c-11.01,0-19.96,8.96-19.96,19.97c0,5.19,1.98,9.9,5.23,13.46c0.38-2.67,1.1-4.77,2.23-6.52
		c0.42-0.66,1.06-1.2,1.81-1.49c0.47-0.21,0.94-0.38,1.39-0.56c0.23-0.09,0.44-0.18,0.66-0.26v-0.69c0-0.29,0.23-0.52,0.52-0.52
		h2.48c0.99-0.54,1.5-1.15,1.75-2.15c-2.05-1.32-3.41-3.63-3.41-6.24v-1.12h-0.62c-0.28,0-0.51-0.23-0.51-0.51v-2.37
		c0-0.27,0.21-0.48,0.46-0.51c0.29-2.76,1.71-5.2,3.89-6.61l-0.05-0.23c-0.05-0.24,0-0.5,0.13-0.7c0.14-0.21,0.35-0.35,0.59-0.39
		c2.22-0.44,4.48-0.44,6.73,0c0.5,0.1,0.81,0.57,0.74,1.06l-0.03,0.21c2.18,1.41,3.66,3.9,3.95,6.66c0.26,0.02,0.46,0.24,0.46,0.51
		v2.37c0,0.28-0.23,0.51-0.51,0.51h-0.42v1.12c0,2.68-1.43,5.04-3.58,6.34c0.27,0.95,0.76,1.53,1.71,2.04h2.49
		c0.29,0,0.52,0.23,0.52,0.52v0.69l0.63,0.25c0.57,0.22,1.18,0.45,1.81,0.72c0.46,0.19,0.85,0.5,1.12,0.88
		c1.29,1.83,2.1,4.05,2.54,6.96c3.24-3.56,5.22-8.27,5.22-13.45C51.96,21,43.01,12.03,32,12.03z" fill="#008080" class="color000000 svgShape"></path><path d="M42.69,38.56c-0.63-0.27-1.22-0.5-1.78-0.71c-0.08-0.03-0.18-0.07-0.26-0.1v2.43h0.23c0.81,0,1.46,0.79,1.46,1.81v7.11
		c1.27-0.77,2.44-1.68,3.51-2.71c-0.38-3.14-1.18-5.46-2.48-7.29C43.21,38.85,42.98,38.67,42.69,38.56z" fill="#008080" class="color000000 svgShape"></path><path d="M40.87,41.19H23.36c-0.18,0-0.43,0.31-0.43,0.79v7.8c2.72,1.39,5.81,2.19,9.08,2.19c3.36,0,6.53-0.84,9.32-2.31v-7.68
		C41.32,41.53,41.08,41.19,40.87,41.19z M26.12,46.63c-0.93,0-1.68-0.75-1.68-1.68s0.75-1.68,1.68-1.68s1.68,0.75,1.68,1.68
		S27.05,46.63,26.12,46.63z M38.12,46.63c-0.93,0-1.68-0.75-1.68-1.68s0.75-1.68,1.68-1.68s1.69,0.75,1.69,1.68
		S39.05,46.63,38.12,46.63z" fill="#008080" class="color000000 svgShape"></path><path d="M23.36 37.74c-.09.03-.2.07-.3.11-.43.17-.9.35-1.37.55-.56.22-1.02.61-1.33 1.09-1.16 1.79-1.85 3.98-2.19 6.89 1.12 1.08 2.38 2.04 3.74 2.84v-7.24c0-1.01.63-1.81 1.44-1.81V37.74zM26.99 40.18h10.03v-3.93c-1.04-.59-1.66-1.32-2-2.37-.9.38-1.88.6-2.91.6-1.1 0-2.15-.24-3.08-.68-.33 1.09-.96 1.84-2.03 2.46V40.18zM25.84 28.36c.04.21.1.41.17.61.06.21.13.4.22.6.1.25.23.47.36.7.07.13.15.27.25.39.14.21.3.41.47.61.19.22.39.42.62.62.19.17.38.31.58.43.1.07.2.14.3.21.02.01.05.03.07.04.03.01.05.03.07.04.93.53 2.01.84 3.16.84 1.07 0 2.08-.27 2.97-.73.02-.01.04-.03.07-.04 1-.55 1.84-1.34 2.42-2.31.14-.23.27-.47.38-.72.07-.17.14-.34.21-.52.01-.03.02-.06.02-.09.05-.12.08-.26.11-.39.02-.08.05-.17.06-.25.03-.12.05-.24.07-.36.05-.32.07-.65.07-.98v-1.12H25.71v1.12c0 .2.01.39.03.59C25.76 27.89 25.79 28.13 25.84 28.36zM38.96 22.55c-.28-2.26-1.42-4.3-3.12-5.55l-.88 5.55H38.96zM28.87 15.59l1.44 6.95h3.62l1.01-6.42.02-.13.06-.4C32.97 15.2 30.9 15.19 28.87 15.59zM25.04 22.55h4.25l-1.16-5.54C26.43 18.27 25.32 20.28 25.04 22.55z" fill="#008080" class="color000000 svgShape"></path><rect width="14.85" height="1.36" x="24.57" y="23.56" fill="#008080" class="color000000 svgShape"></rect><rect width="1.6" height="3.71" x="24.38" y="36.46" fill="#008080" class="color000000 svgShape"></rect><rect width="1.6" height="3.71" x="38.02" y="36.46" fill="#008080" class="color000000 svgShape"></rect><circle cx="26.12" cy="44.95" r=".67" fill="#008080" class="color000000 svgShape"></circle><circle cx="38.12" cy="44.95" r=".67" fill="#008080" class="color000000 svgShape"></circle></svg>